<svg width="16" height="16" viewBox="0 0 16 16" fill="none" xmlns="http://www.w3.org/2000/svg">
<path d="M8 0.833008C11.958 0.833008 15.167 4.04196 15.167 8C15.167 11.958 11.958 15.167 8 15.167C4.04196 15.167 0.833008 11.958 0.833008 8C0.833008 4.04196 4.04196 0.833008 8 0.833008ZM8 1.83301C4.59424 1.83301 1.83301 4.59424 1.83301 8C1.83301 11.4058 4.59424 14.167 8 14.167C11.4058 14.167 14.167 11.4058 14.167 8C14.167 4.59424 11.4058 1.83301 8 1.83301ZM8.00098 9.33301C8.36908 9.33311 8.66699 9.63188 8.66699 10C8.66699 10.3681 8.36908 10.6669 8.00098 10.667H7.99512C7.62693 10.667 7.32812 10.3682 7.32812 10C7.32812 9.63181 7.62693 9.33301 7.99512 9.33301H8.00098ZM8 4.83301C8.27603 4.83301 8.49982 5.05701 8.5 5.33301V8C8.5 8.27614 8.27614 8.5 8 8.5C7.72386 8.5 7.5 8.27614 7.5 8V5.33301C7.50018 5.05701 7.72397 4.83301 8 4.83301Z" fill="#C00000"/>
</svg>
