<svg width="16" height="16" viewBox="0 0 16 16" fill="none" xmlns="http://www.w3.org/2000/svg">
<path d="M13.8334 8.0004C13.8334 8.24944 13.7229 8.48049 13.6184 8.65397C13.5055 8.84118 13.3537 9.03447 13.1873 9.22292C12.8533 9.60097 12.4175 10.007 11.9946 10.3742C11.5692 10.7436 11.1452 11.0837 10.8285 11.3309C10.6699 11.4547 10.5376 11.5557 10.4447 11.6259C10.3982 11.661 10.3615 11.6884 10.3363 11.7072L10.3073 11.7288L10.2996 11.7345L10.2969 11.7365C10.0746 11.9003 9.76127 11.853 9.59749 11.6307C9.43373 11.4084 9.48119 11.0954 9.7035 10.9316L9.71198 10.9253L9.73868 10.9055C9.76229 10.8879 9.79724 10.8617 9.84191 10.828C9.93126 10.7605 10.0594 10.6627 10.2132 10.5426C10.5216 10.302 10.931 9.97338 11.3389 9.61915C11.7493 9.26275 12.1468 8.8902 12.4378 8.56082C12.4562 8.53999 12.474 8.51952 12.4913 8.49941L2.6667 8.49941C2.39055 8.49941 2.1667 8.27555 2.1667 7.99941C2.1667 7.72327 2.39055 7.49941 2.6667 7.49941L12.4896 7.49941C12.4729 7.47994 12.4556 7.46012 12.4378 7.43997C12.1468 7.11059 11.7493 6.73804 11.3389 6.38165C10.931 6.02741 10.5216 5.69881 10.2132 5.45817C10.0594 5.33805 9.93126 5.24032 9.84191 5.17282C9.79724 5.13908 9.7623 5.11292 9.73868 5.09532L9.71198 5.07547L9.7035 5.06919C9.48119 4.90541 9.43373 4.59243 9.5975 4.3701C9.76127 4.14777 10.0746 4.10051 10.2969 4.26428L10.2996 4.26626L10.3073 4.27196L10.3363 4.29355C10.3615 4.31235 10.3982 4.33979 10.4447 4.37491C10.5376 4.44511 10.6699 4.54607 10.8285 4.66987C11.1452 4.91705 11.5692 5.25719 11.9946 5.6266C12.4175 5.99384 12.8533 6.39983 13.1873 6.77788C13.3537 6.96633 13.5055 7.15961 13.6184 7.34683C13.7223 7.51927 13.832 7.74859 13.8334 7.99592" fill="white"/>
</svg>
