<svg width="24" height="24" viewBox="0 0 24 24" fill="none" xmlns="http://www.w3.org/2000/svg">
<path d="M8.55711 17.3962C8.71848 17.2743 9.20023 16.9104 9.47794 16.6936C10.0341 16.2596 10.7732 15.6664 11.5101 15.0266C12.2507 14.3836 12.972 13.7081 13.5023 13.108C13.7682 12.8071 13.9702 12.5427 14.1017 12.3246C14.2254 12.1194 14.2511 11.9983 14.2511 11.9983C14.2511 11.9983 14.2254 11.8806 14.1017 11.6755C13.9702 11.4574 13.7682 11.193 13.5023 10.8921C12.972 10.292 12.2507 9.6165 11.5101 8.97346C10.7732 8.33365 10.0341 7.74054 9.4779 7.30647C9.20019 7.08974 8.71913 6.72634 8.55775 6.60445C8.22423 6.35882 8.15229 5.88881 8.39792 5.55529C8.64356 5.22177 9.11305 5.15052 9.44658 5.39615L9.44912 5.39807C9.61838 5.52591 10.1174 5.90281 10.4007 6.12394C10.9695 6.56782 11.7304 7.17825 12.4935 7.84081C13.2529 8.50013 14.0316 9.22579 14.6264 9.89891C14.923 10.2346 15.1897 10.5749 15.3863 10.9011C15.5705 11.2066 15.7518 11.5935 15.7518 12.0001C15.7518 12.4066 15.5705 12.7935 15.3863 13.099C15.1897 13.4252 14.923 13.7655 14.6264 14.1012C14.0316 14.7743 13.2529 15.5 12.4935 16.1593C11.7305 16.8218 10.9696 17.4323 10.4008 17.8762C10.1172 18.0974 9.6182 18.4744 9.44929 18.6019L9.44711 18.6036C9.11358 18.8492 8.64361 18.7783 8.39797 18.4448C8.15235 18.1113 8.22361 17.6418 8.55711 17.3962Z" fill="#999999"/>
</svg>
