<svg width="16" height="16" viewBox="0 0 16 16" fill="none" xmlns="http://www.w3.org/2000/svg">
<path d="M2.16663 8.00034C2.16663 8.24938 2.27706 8.48042 2.38164 8.65391C2.49449 8.84112 2.64626 9.03441 2.81275 9.22286C3.14674 9.6009 3.58254 10.0069 4.00545 10.3741C4.43084 10.7435 4.85478 11.0837 5.17146 11.3309C5.33007 11.4547 5.46238 11.5556 5.55532 11.6258C5.6018 11.6609 5.63846 11.6884 5.66368 11.7072L5.69273 11.7288L5.70043 11.7345L5.70311 11.7364C5.92544 11.9002 6.23873 11.853 6.40251 11.6306C6.56627 11.4083 6.51881 11.0953 6.2965 10.9315L6.28802 10.9253L6.26132 10.9054C6.23771 10.8878 6.20276 10.8617 6.15809 10.8279C6.06874 10.7604 5.94064 10.6627 5.78675 10.5426C5.47844 10.3019 5.06905 9.97332 4.66112 9.61909C4.2507 9.26269 3.85317 8.89014 3.56217 8.56076C3.54376 8.53993 3.52595 8.51946 3.50874 8.49935L13.3333 8.49935C13.6094 8.49935 13.8333 8.27549 13.8333 7.99935C13.8333 7.72321 13.6094 7.49935 13.3333 7.49935L3.51043 7.49935C3.52712 7.47988 3.54436 7.46006 3.56217 7.43991C3.85317 7.11053 4.2507 6.73798 4.66111 6.38159C5.06905 6.02735 5.47844 5.69875 5.78675 5.45811C5.94064 5.33799 6.06874 5.24026 6.15809 5.17276C6.20276 5.13902 6.2377 5.11286 6.26132 5.09526L6.28802 5.07541L6.2965 5.06913C6.51881 4.90535 6.56627 4.59237 6.4025 4.37004C6.23873 4.14771 5.92544 4.10045 5.70311 4.26422L5.70043 4.2662L5.69272 4.2719L5.66368 4.29349C5.63846 4.31229 5.6018 4.33973 5.55532 4.37485C5.46238 4.44505 5.33006 4.54601 5.17146 4.66981C4.85477 4.91699 4.43084 5.25713 4.00545 5.62654C3.58254 5.99378 3.14674 6.39977 2.81275 6.77782C2.64625 6.96627 2.49449 7.15955 2.38164 7.34676C2.27769 7.51921 2.16795 7.74853 2.16664 7.99585" fill="white"/>
</svg>
