<svg width="16" height="16" viewBox="0 0 16 16" fill="none" xmlns="http://www.w3.org/2000/svg">
<path fill-rule="evenodd" clip-rule="evenodd" d="M2.97645 2.88881C4.26922 1.61808 6.04349 0.833374 8.00004 0.833374C8.4591 0.833374 8.90853 0.8766 9.34434 0.959343C12.6598 1.58881 15.1667 4.50113 15.1667 8.00004C15.1667 8.41303 15.1317 8.81824 15.0644 9.21276C14.488 12.5933 11.545 15.1667 8.00004 15.1667C4.042 15.1667 0.833374 11.9581 0.833374 8.00004C0.833374 5.99883 1.65428 4.18844 2.97645 2.88881ZM4.28605 3.07674C4.57597 3.27064 4.82624 3.53204 5.09983 3.82113C5.98873 4.76036 6.75174 4.73535 7.16879 4.51502C7.33472 4.42735 7.39004 4.34795 7.41934 4.28884C7.4592 4.2084 7.47471 4.12318 7.50701 3.94565C7.50856 3.93716 7.51014 3.92846 7.51177 3.91953C7.54306 3.74784 7.5923 3.49002 7.75565 3.24332C7.92665 2.98508 8.18654 2.78827 8.55101 2.64386C8.76918 2.55741 8.86905 2.42012 8.90798 2.27678C8.9368 2.17064 8.93708 2.03965 8.89741 1.89813C8.60469 1.85548 8.30509 1.83337 8.00004 1.83337C6.60528 1.83337 5.31925 2.29597 4.28605 3.07674ZM9.92851 2.14077C9.92651 2.27447 9.90856 2.40801 9.87303 2.53884C9.74872 2.99662 9.42044 3.375 8.91938 3.57354C8.69722 3.66156 8.62215 3.74601 8.58943 3.79541C8.54908 3.85635 8.52587 3.93256 8.49556 4.09884C8.49294 4.1132 8.49023 4.12867 8.48734 4.14514C8.46155 4.29207 8.42192 4.51783 8.31534 4.7329C8.18433 4.99723 7.9698 5.22281 7.63592 5.3992C6.72013 5.88303 5.48389 5.68174 4.37353 4.5085C3.9548 4.06606 3.74024 3.8712 3.49527 3.78873C2.46393 4.89139 1.83337 6.37167 1.83337 8.00004C1.83337 11.0824 4.09479 13.6365 7.04899 14.0938C7.03965 14.0405 7.03347 13.9863 7.0305 13.9311C7.00833 13.5188 7.17182 13.1389 7.35037 12.8318C7.6107 12.3842 7.68981 12.2394 7.73073 12.0753C7.77417 11.901 7.77778 11.6916 7.77778 11.0963C7.77778 10.7681 7.8257 10.4373 7.97264 10.1417C8.12545 9.83418 8.36996 9.59624 8.70297 9.44234C9.32597 9.15444 10.2309 9.1744 11.4314 9.41451C11.5693 9.44209 11.7143 9.42126 11.9052 9.34275C12.0638 9.27753 12.2153 9.19072 12.4019 9.08383C12.4602 9.05046 12.5218 9.01514 12.5882 8.97791C12.9915 8.75164 13.509 8.4923 14.144 8.5334C14.159 8.3577 14.1667 8.17982 14.1667 8.00004C14.1667 5.2681 12.3898 2.9503 9.92851 2.14077ZM13.9756 9.52992C13.6822 9.53911 13.4059 9.6658 13.0775 9.85002C13.0323 9.87541 12.9844 9.90289 12.9345 9.93154C12.7383 10.0442 12.5107 10.175 12.2856 10.2676C11.986 10.3908 11.6323 10.4745 11.2353 10.3951C10.0549 10.159 9.43203 10.207 9.12247 10.3501C8.9892 10.4117 8.91624 10.4899 8.86815 10.5867C8.8142 10.6953 8.77778 10.8568 8.77778 11.0963C8.77778 11.1189 8.77779 11.1412 8.7778 11.1632C8.77794 11.6663 8.77804 12.0082 8.70105 12.3171C8.62168 12.6355 8.46383 12.9067 8.24437 13.2838C8.23464 13.3005 8.2248 13.3174 8.21483 13.3345C8.07129 13.5814 8.02249 13.7553 8.02906 13.8774C8.03283 13.9476 8.05646 14.0437 8.17852 14.1642C10.977 14.0846 13.3094 12.1403 13.9756 9.52992Z" fill="#999999"/>
</svg>
