<svg width="24" height="24" viewBox="0 0 24 24" fill="none" xmlns="http://www.w3.org/2000/svg">
<path d="M11.9998 16C13.3105 16.0002 14.3461 17.1124 14.2527 18.4199L14.2517 18.4277L14.0115 22.748C13.7472 22.7487 13.4733 22.75 13.1892 22.75H10.8113C10.5262 22.75 10.2512 22.7487 9.98608 22.748L9.74683 18.4277L9.74585 18.4199C9.65245 17.1123 10.6888 16 11.9998 16ZM11.9998 1.25C12.8658 1.25 13.6404 1.52703 14.4763 1.99609C15.2862 2.45058 16.2146 3.12107 17.3816 3.96484L18.8904 5.05664C19.8268 5.7337 20.5753 6.27388 21.1394 6.77441C21.7219 7.29128 22.1579 7.80694 22.4343 8.45508C22.7113 9.10459 22.7781 9.77051 22.741 10.5381C22.7051 11.2789 22.5675 12.1726 22.3962 13.2871L22.0808 15.3389C21.8375 16.9225 21.6438 18.1836 21.3591 19.166C21.0647 20.182 20.6502 20.9889 19.9089 21.6055C19.1709 22.2193 18.2915 22.4926 17.2175 22.623C16.8518 22.6675 16.4522 22.6951 16.0164 22.7139L16.2478 18.5537C16.4187 16.0922 14.4683 14.0002 11.9998 14C9.53101 14 7.5798 16.0921 7.75073 18.5537L7.9812 22.7139C7.54647 22.6951 7.1479 22.6674 6.78296 22.623C5.70898 22.4926 4.82964 22.2193 4.09155 21.6055C3.3503 20.9889 2.93575 20.182 2.64136 19.166C2.35668 18.1836 2.16303 16.9225 1.91968 15.3389L1.60425 13.2871C1.43297 12.1726 1.29539 11.2789 1.25952 10.5381C1.22236 9.77048 1.28914 9.10461 1.56616 8.45508C1.8426 7.80694 2.27854 7.29128 2.86108 6.77441C3.42524 6.27388 4.17368 5.7337 5.11011 5.05664L6.6189 3.96484C7.78584 3.12109 8.71429 2.45057 9.52417 1.99609C10.3599 1.52714 11.1339 1.25008 11.9998 1.25Z" fill="#2A3EF4"/>
</svg>
