<svg width="16" height="16" viewBox="0 0 16 16" fill="none" xmlns="http://www.w3.org/2000/svg">
<path d="M6.05286 1.85822C7.35482 1.82551 8.64445 1.82551 9.94641 1.85822L9.98547 1.85919C11.002 1.88472 11.8202 1.90518 12.4757 2.01935C13.1618 2.13887 13.7194 2.36785 14.1906 2.84064C14.6598 3.31167 14.8877 3.86175 15.005 4.53693C15.1167 5.17984 15.1343 5.97805 15.1554 6.96661L15.1564 7.00568C15.1705 7.66972 15.1705 8.32991 15.1564 8.99396L15.1554 9.034C15.1343 10.0222 15.1166 10.8199 15.005 11.4627C14.8878 12.1379 14.6598 12.6879 14.1906 13.159C13.7194 13.6319 13.1619 13.8617 12.4757 13.9813C11.8202 14.0954 11.002 14.1159 9.98547 14.1414L9.94641 14.1424C8.64446 14.1751 7.35481 14.1751 6.05286 14.1424L6.01477 14.1414C4.99833 14.1159 4.18004 14.0954 3.52454 13.9813C2.8382 13.8617 2.27996 13.632 1.80872 13.159C1.33959 12.688 1.1115 12.1378 0.994263 11.4627C0.882689 10.82 0.865905 10.0222 0.844849 9.034L0.843872 8.99396C0.829717 8.32991 0.829713 7.66973 0.843872 7.00568L0.844849 6.96661C0.865912 5.97807 0.882623 5.17983 0.994263 4.53693C1.11151 3.86174 1.33947 3.31168 1.80872 2.84064C2.27996 2.3676 2.8382 2.13888 3.52454 2.01935C4.18007 1.90519 4.99826 1.88471 6.01477 1.85919L6.05286 1.85822ZM10.3048 7.04376C9.44262 7.53228 8.74178 7.83087 8.00012 7.83087C7.25854 7.83081 6.55754 7.53224 5.69543 7.04376L1.94641 4.91974C1.87714 5.44803 1.86329 6.11638 1.84387 7.02716C1.83002 7.67709 1.83001 8.32352 1.84387 8.97345C1.86598 10.0102 1.88245 10.7322 1.97961 11.2918C2.07266 11.8276 2.23293 12.1671 2.5177 12.4529C2.80054 12.7369 3.14472 12.8998 3.69641 12.9959C4.27048 13.0958 5.01415 13.1157 6.07825 13.1424C7.36337 13.1747 8.6359 13.1747 9.92102 13.1424C10.9854 13.1157 11.7297 13.0959 12.3038 12.9959C12.8555 12.8998 13.1997 12.7369 13.4825 12.4529C13.7672 12.1671 13.9276 11.8275 14.0206 11.2918C14.1178 10.7322 14.1343 10.0101 14.1564 8.97345C14.1702 8.32352 14.1702 7.67709 14.1564 7.02716C14.1369 6.11626 14.1212 5.44806 14.0519 4.91974L10.3048 7.04376ZM9.92102 2.85724C8.6359 2.82496 7.36337 2.82495 6.07825 2.85724C5.01408 2.88397 4.2705 2.90476 3.69641 3.0047C3.14478 3.10077 2.80053 3.26282 2.5177 3.54669C2.4025 3.66234 2.30778 3.78685 2.22961 3.9295L6.1886 6.17365C7.02533 6.64774 7.53338 6.83082 8.00012 6.83087C8.46691 6.83087 8.97483 6.64778 9.81165 6.17365L13.7697 3.93048C13.6915 3.78767 13.5978 3.66244 13.4825 3.54669C13.1997 3.26277 12.8555 3.10078 12.3038 3.0047C11.7297 2.90471 10.9855 2.88398 9.92102 2.85724Z" fill="#999999"/>
</svg>
