<svg width="24" height="24" viewBox="0 0 24 24" fill="none" xmlns="http://www.w3.org/2000/svg">
<path fill-rule="evenodd" clip-rule="evenodd" d="M15.3909 2.3656C16.291 2.48662 17.0488 2.7455 17.6508 3.34741C18.2527 3.94933 18.5116 4.70725 18.6326 5.60736C18.6964 6.08233 18.7253 6.62791 18.7384 7.24908H19.0485C19.7133 7.24905 20.2862 7.24899 20.7449 7.31067C21.2366 7.37677 21.7078 7.52584 22.0901 7.90808C22.4723 8.29033 22.6214 8.76159 22.6875 9.25323C22.7388 9.63552 22.7474 10.097 22.7488 10.625L22.7491 10.9497V18.9991C22.7491 20.5179 21.5179 21.7491 19.9991 21.7491H7.9442C6.57661 21.7491 5.47429 21.7491 4.60732 21.6326C3.70721 21.5116 2.94933 21.2527 2.34741 20.6508C1.74549 20.0488 1.48662 19.291 1.3656 18.3909C1.27238 17.6973 1.25373 16.8531 1.25 15.843V8.15521C1.25373 7.14507 1.27238 6.30093 1.3656 5.60736C1.48662 4.70725 1.74549 3.94933 2.34741 3.34741C2.94933 2.7455 3.70721 2.48662 4.60732 2.3656C5.30088 2.27238 6.14509 2.25373 7.15523 2.25H12.8429C13.8531 2.25373 14.6973 2.27238 15.3909 2.3656ZM19.4479 8.74982L18.7491 8.74908V18.9991C18.7491 19.6887 19.3076 20.2479 19.9969 20.2491C20.6895 20.2491 21.2491 19.6895 21.2491 18.9991V10.9991C21.2491 10.2708 21.2475 9.8 21.2009 9.45312C21.1571 9.12782 21.0865 9.02585 21.0294 8.96875C20.9723 8.91166 20.8704 8.84104 20.5451 8.7973C20.2753 8.76103 19.9305 8.75204 19.4479 8.74982ZM12.6314 3.74957H7.36673C6.26145 3.75196 5.44633 3.7663 4.80719 3.85223C4.07342 3.95088 3.68484 4.13132 3.40808 4.40808C3.13132 4.68484 2.95087 5.07342 2.85222 5.80719C2.76628 6.44633 2.75193 7.26148 2.74954 8.36676V15.6314C2.75193 16.7367 2.76628 17.5518 2.85222 18.191C2.95087 18.9248 3.13132 19.3133 3.40808 19.5901C3.68484 19.8669 4.07342 20.0473 4.80719 20.146C5.56254 20.2475 6.56366 20.2491 7.99907 20.2491H17.549C17.3572 19.8741 17.2491 19.4492 17.2491 18.9991V8.92554C17.249 7.52937 17.2458 6.54957 17.146 5.80719C17.0473 5.07342 16.8669 4.68484 16.5901 4.40808C16.3133 4.13132 15.9248 3.95088 15.191 3.85223C14.5518 3.7663 13.7367 3.75196 12.6314 3.74957ZM14.7491 7.99908C14.7491 8.41329 14.4133 8.74908 13.9991 8.74908H5.99907C5.58486 8.74908 5.24907 8.41329 5.24907 7.99908C5.24907 7.58487 5.58486 7.24908 5.99907 7.24908H13.9991C14.4133 7.24908 14.7491 7.58487 14.7491 7.99908ZM13.9991 12.7491C14.4133 12.7491 14.7491 12.4133 14.7491 11.9991C14.7491 11.5849 14.4133 11.2491 13.9991 11.2491H5.99907C5.58486 11.2491 5.24907 11.5849 5.24907 11.9991C5.24907 12.4133 5.58486 12.7491 5.99907 12.7491H13.9991ZM10.7491 15.9991C10.7491 16.4133 10.4133 16.7491 9.99907 16.7491H5.99907C5.58486 16.7491 5.24907 16.4133 5.24907 15.9991C5.24907 15.5849 5.58486 15.2491 5.99907 15.2491H9.99907C10.4133 15.2491 10.7491 15.5849 10.7491 15.9991Z" fill="#666666"/>
</svg>
