<svg width="24" height="24" viewBox="0 0 24 24" fill="none" xmlns="http://www.w3.org/2000/svg">
<path d="M12.0693 2.25C13.3925 2.24997 14.4841 2.25037 15.3477 2.36621C16.2542 2.48787 17.0552 2.75299 17.6963 3.39258C18.3372 4.03218 18.6027 4.83096 18.7246 5.73535C18.78 6.14661 18.8091 6.60981 18.8242 7.125C18.8242 7.125 20.1152 7.12514 20.5801 7.1875C21.0874 7.25561 21.6078 7.41358 22.0342 7.83887C22.4606 8.26431 22.6192 8.78376 22.6875 9.29004C22.75 9.75382 22.7501 10.3271 22.75 10.9648V18.8252C22.7499 20.4405 21.4374 21.7499 19.8184 21.75H8.02148C6.69854 21.75 5.60765 21.7496 4.74414 21.6338C3.8374 21.5122 3.03573 21.2471 2.39453 20.6074C1.75365 19.9678 1.48811 19.169 1.36621 18.2646C1.2501 17.4031 1.24997 16.3142 1.25 14.9941V9.00586C1.24997 7.68574 1.2501 6.59694 1.36621 5.73535C1.48811 4.83098 1.75365 4.03217 2.39453 3.39258C3.03573 2.75287 3.8374 2.48784 4.74414 2.36621C5.60764 2.25043 6.69856 2.24997 8.02148 2.25H12.0693ZM18.8418 18.8252C18.8419 19.3636 19.2797 19.7998 19.8193 19.7998C20.3589 19.7997 20.7958 19.3635 20.7959 18.8252V11.0254C20.7959 10.3084 20.7939 9.868 20.751 9.5498C20.7133 9.27044 20.6597 9.22331 20.6533 9.21777L20.6523 9.2168C20.6452 9.20871 20.5946 9.15694 20.3203 9.12012C20.0014 9.07734 19.5605 9.0752 18.8418 9.0752V18.8252ZM6 15.25C5.58579 15.25 5.25 15.5858 5.25 16C5.25 16.4142 5.58579 16.75 6 16.75H10C10.4142 16.75 10.75 16.4142 10.75 16C10.75 15.5858 10.4142 15.25 10 15.25H6ZM6 11.25C5.58579 11.25 5.25 11.5858 5.25 12C5.25 12.4142 5.58579 12.75 6 12.75H14C14.4142 12.75 14.75 12.4142 14.75 12C14.75 11.5858 14.4142 11.25 14 11.25H6ZM6 7.25C5.58579 7.25 5.25 7.58579 5.25 8C5.25 8.41421 5.58579 8.75 6 8.75H14C14.4142 8.75 14.75 8.41421 14.75 8C14.75 7.58579 14.4142 7.25 14 7.25H6Z" fill="#2A3EF4"/>
</svg>
