<svg width="24" height="24" viewBox="0 0 24 24" fill="none" xmlns="http://www.w3.org/2000/svg">
<path d="M15.2998 1.94727C15.5841 1.90904 15.8241 1.99184 15.9873 2.06348C16.1373 2.12935 16.3066 2.22514 16.4707 2.31836L18.2451 3.32617C18.4128 3.42133 18.5847 3.51911 18.7197 3.61523C18.8655 3.71902 19.0627 3.88409 19.1758 4.15137C19.2991 4.44302 19.2588 4.73701 19.2295 4.90723C19.1977 5.09134 19.1392 5.31799 19.0762 5.56055L19.0693 5.58789C18.6729 7.11404 19.6399 8.75523 21.2061 9.17773L21.2334 9.18555C21.4705 9.24946 21.6935 9.30905 21.8672 9.37207C22.0297 9.43106 22.3009 9.54232 22.4922 9.79199C22.6679 10.0215 22.7151 10.2731 22.7334 10.4512C22.7503 10.6154 22.75 10.8119 22.75 11.0029V12.9941C22.75 13.1852 22.7503 13.3817 22.7334 13.5459C22.7151 13.724 22.668 13.9755 22.4922 14.2051C22.3009 14.4548 22.0297 14.566 21.8672 14.625C21.7804 14.6565 21.6811 14.6869 21.5742 14.7178L21.2061 14.8193C19.6405 15.2418 18.6736 16.8829 19.0703 18.4092L19.0781 18.4365C19.1412 18.679 19.1997 18.9048 19.2314 19.0889C19.2608 19.259 19.3001 19.5529 19.1768 19.8447C19.0637 20.112 18.8675 20.278 18.7217 20.3818C18.5867 20.4779 18.4146 20.5748 18.2471 20.6699L16.4717 21.6777C16.3075 21.771 16.1383 21.8677 15.9883 21.9336C15.825 22.0052 15.5851 22.0881 15.3008 22.0498C14.9918 22.0081 14.7626 21.8306 14.6309 21.7197C14.4909 21.602 14.3301 21.4411 14.1592 21.2705L14.1387 21.25C12.9714 20.0857 11.0294 20.0863 9.8623 21.251L9.84277 21.2705C9.67185 21.4411 9.511 21.602 9.37109 21.7197C9.23931 21.8306 9.00937 22.0081 8.7002 22.0498C8.41597 22.088 8.17586 22.0052 8.0127 21.9336C7.8627 21.8677 7.69342 21.771 7.5293 21.6777L5.75488 20.6709C5.5872 20.5757 5.41534 20.478 5.28027 20.3818C5.13449 20.2781 4.93732 20.1129 4.82422 19.8457C4.70077 19.5538 4.74116 19.259 4.77051 19.0889C4.80227 18.9048 4.86083 18.6789 4.92383 18.4365L4.93066 18.4092C5.32713 16.883 4.36007 15.2419 2.79395 14.8193L2.7666 14.8115C2.52954 14.7476 2.30653 14.688 2.13281 14.625C1.97027 14.566 1.69909 14.4548 1.50781 14.2051C1.33197 13.9755 1.28495 13.724 1.2666 13.5459C1.24969 13.3817 1.24996 13.1852 1.25 12.9941L1.25 11.0029C1.24996 10.8119 1.24971 10.6154 1.2666 10.4512C1.28495 10.2731 1.33191 10.0206 1.50781 9.79102C1.69904 9.54163 1.97032 9.43103 2.13281 9.37207C2.30654 9.30906 2.52954 9.24944 2.7666 9.18555L2.79395 9.17773C4.36062 8.75521 5.32864 7.1138 4.93262 5.58789C4.93022 5.57866 4.92719 5.56876 4.9248 5.55957C4.86185 5.31719 4.8032 5.09121 4.77148 4.90723C4.74216 4.73704 4.70278 4.44306 4.82617 4.15137C4.93926 3.88403 5.13642 3.71901 5.28223 3.61523C5.41727 3.51913 5.5892 3.4213 5.75684 3.32617C5.76496 3.32156 5.77315 3.3171 5.78125 3.3125L7.50586 2.33301C7.51414 2.32831 7.52294 2.32308 7.53125 2.31836C7.69537 2.22513 7.86468 2.12932 8.01465 2.06348C8.17787 1.99182 8.41775 1.90895 8.70215 1.94727C9.01126 1.98893 9.2403 2.16651 9.37207 2.27734C9.51193 2.39498 9.67287 2.55507 9.84375 2.72559L9.86426 2.74609C11.0308 3.90971 12.9713 3.90974 14.1377 2.74609L14.1582 2.72559C14.329 2.55516 14.4901 2.39492 14.6299 2.27734C14.7617 2.16649 14.9908 1.98889 15.2998 1.94727ZM15.1973 3.80762C13.4453 5.55543 10.5567 5.55544 8.80469 3.80762C8.66516 3.66842 8.56666 3.57135 8.49121 3.50098C8.48807 3.50267 8.4847 3.50409 8.48145 3.50586C8.41682 3.54091 8.34181 3.58293 8.24707 3.63672L6.52246 4.61621C6.42578 4.6711 6.34886 4.71455 6.28418 4.75293C6.27985 4.7555 6.2756 4.75828 6.27148 4.76074C6.29509 4.86689 6.33127 5.00869 6.38379 5.21094C6.99367 7.56014 5.51887 9.9964 3.18457 10.626C2.98959 10.6786 2.85281 10.7161 2.75195 10.7471C2.75186 10.7512 2.75204 10.7554 2.75195 10.7598C2.75051 10.8342 2.75 10.921 2.75 11.0312L2.75 12.9648C2.75 13.0752 2.75051 13.1628 2.75195 13.2373C2.75204 13.2416 2.75186 13.2459 2.75195 13.25C2.85281 13.2809 2.98962 13.3185 3.18457 13.3711C5.51883 14.0008 6.99298 16.4372 6.38281 18.7861C6.33029 18.9883 6.29412 19.1302 6.27051 19.2363C6.27458 19.2388 6.27892 19.2416 6.2832 19.2441C6.34778 19.2825 6.42406 19.3251 6.52051 19.3799L8.24512 20.3594C8.34004 20.4133 8.41478 20.4561 8.47949 20.4912C8.48275 20.493 8.48612 20.4944 8.48926 20.4961C8.56475 20.4257 8.66298 20.3279 8.80273 20.1885C10.5554 18.4396 13.4454 18.4397 15.1982 20.1885C15.3379 20.3278 15.4363 20.4257 15.5117 20.4961C15.515 20.4943 15.5191 20.4931 15.5225 20.4912C15.5871 20.4562 15.6611 20.4132 15.7559 20.3594L17.4814 19.3799C17.5779 19.3251 17.6542 19.2815 17.7187 19.2432C17.723 19.2407 17.7274 19.2387 17.7314 19.2363C17.7078 19.1302 17.6717 18.9883 17.6191 18.7861C17.0087 16.4375 18.4812 14.0009 20.8154 13.3711C21.0104 13.3185 21.1472 13.2809 21.248 13.25C21.2481 13.2459 21.2489 13.2416 21.249 13.2373C21.2505 13.1628 21.25 13.0752 21.25 12.9648V11.0313C21.25 10.921 21.2505 10.8342 21.249 10.7598C21.2489 10.7554 21.2481 10.7512 21.248 10.7471C21.1472 10.7161 21.0104 10.6786 20.8154 10.626C18.4812 9.99631 17.0072 7.5598 17.6172 5.21094C17.6697 5.00876 17.7059 4.86687 17.7295 4.76074C17.7254 4.75829 17.7211 4.75549 17.7168 4.75293C17.6522 4.71457 17.5761 4.67106 17.4795 4.61621L15.7549 3.6377C15.66 3.5838 15.5852 3.54096 15.5205 3.50586C15.5173 3.50409 15.5139 3.50267 15.5107 3.50098C15.4353 3.57133 15.3368 3.6684 15.1973 3.80762ZM12 7.75C14.3472 7.75 16.25 9.65279 16.25 12C16.25 14.3472 14.3472 16.25 12 16.25C9.65279 16.25 7.75 14.3472 7.75 12C7.75 9.65279 9.65279 7.75 12 7.75ZM12 9.25C10.4812 9.25 9.25 10.4812 9.25 12C9.25 13.5188 10.4812 14.75 12 14.75C13.5188 14.75 14.75 13.5188 14.75 12C14.75 10.4812 13.5188 9.25 12 9.25Z" fill="#4D4D4D"/>
</svg>
