<svg width="16" height="16" viewBox="0 0 16 16" fill="none" xmlns="http://www.w3.org/2000/svg">
<path d="M8 0.833008C9.93289 0.833008 11.4998 2.40016 11.5 4.33301V5.63965C12.6272 5.90884 13.4927 6.86597 13.6504 8.03711C13.7491 8.7705 13.833 9.54113 13.833 10.333C13.833 11.1251 13.7492 11.8963 13.6504 12.6299C13.4694 13.9745 12.3553 15.0364 10.9834 15.0996C10.0311 15.1434 9.06389 15.167 8 15.167C6.93611 15.167 5.96889 15.1434 5.0166 15.0996C3.64467 15.0364 2.53065 13.9745 2.34961 12.6299C2.25084 11.8963 2.16699 11.1251 2.16699 10.333C2.16702 9.54113 2.25087 8.7705 2.34961 8.03711C2.50729 6.86597 3.37282 5.90884 4.5 5.63965V4.33301C4.50018 2.40016 6.06711 0.833008 8 0.833008ZM8 6.5C6.95096 6.5 5.99903 6.52238 5.0625 6.56543C4.19004 6.60565 3.45973 7.28784 3.34082 8.16992C3.24392 8.88964 3.16702 9.60839 3.16699 10.333C3.16699 11.0576 3.24392 11.7764 3.34082 12.4961C3.4596 13.3783 4.18993 14.0613 5.0625 14.1016C5.99904 14.1446 6.95096 14.167 8 14.167C9.04904 14.167 10.001 14.1446 10.9375 14.1016C11.8101 14.0613 12.5404 13.3783 12.6592 12.4961C12.7561 11.7764 12.833 11.0576 12.833 10.333C12.833 9.60839 12.7561 8.88964 12.6592 8.16992C12.5403 7.28784 11.81 6.60565 10.9375 6.56543C10.001 6.52238 9.04904 6.5 8 6.5ZM8.00293 9.66699C8.37101 9.66699 8.66975 9.96497 8.66992 10.333C8.66992 10.7012 8.37112 11 8.00293 11H7.99707C7.62903 10.9998 7.33105 10.7011 7.33105 10.333C7.33123 9.96508 7.62914 9.66717 7.99707 9.66699H8.00293ZM8 1.83301C6.6194 1.83301 5.50018 2.95245 5.5 4.33301V5.54688C6.29785 5.5164 7.11543 5.5 8 5.5C8.88457 5.5 9.70215 5.5164 10.5 5.54688V4.33301C10.4998 2.95245 9.3806 1.83301 8 1.83301Z" fill="#999999"/>
</svg>
