<svg width="24" height="24" viewBox="0 0 24 24" fill="none" xmlns="http://www.w3.org/2000/svg">
<path d="M7.39655 4.79614C7.48973 4.7031 7.64123 4.70314 7.73444 4.79614L19.2061 16.2678C19.2992 16.3612 19.2993 16.5124 19.2061 16.6057L16.6036 19.2083C15.5904 20.2214 14.7848 21.0267 14.0714 21.5969C13.338 22.183 12.6347 22.5778 11.8096 22.7004C11.2464 22.7841 10.6693 22.7665 10.1055 22.6516C9.0586 22.4381 8.17697 21.7982 7.14459 20.8518C6.61435 20.3657 6.70237 19.5977 7.12018 19.1799C7.67529 18.6247 7.69086 17.6383 7.0274 16.9749C6.36395 16.3115 5.37755 16.327 4.82233 16.8821C4.40452 17.2999 3.63755 17.3879 3.15143 16.8577C2.20478 15.8251 1.56409 14.9439 1.35065 13.8967C1.23575 13.3329 1.21909 12.7559 1.3028 12.1926C1.42546 11.3677 1.81929 10.6642 2.40533 9.93091C2.97555 9.21745 3.78089 8.41276 4.79401 7.39966L7.39655 4.79614ZM12.1905 1.30298C12.7536 1.21934 13.3299 1.23597 13.8936 1.35083C14.941 1.56425 15.8227 2.2047 16.8555 3.15161C17.3853 3.63735 17.2974 4.40375 16.8799 4.82153C16.3247 5.37677 16.3092 6.36408 16.9727 7.02759C17.6362 7.69077 18.6226 7.67537 19.1778 7.12036C19.5955 6.70266 20.3628 6.61385 20.8487 7.1438C21.7955 8.17652 22.436 9.05849 22.6495 10.1057C22.7644 10.6695 22.781 11.2466 22.6973 11.8098C22.5747 12.6349 22.18 13.3381 21.5938 14.0715C21.3786 14.3408 21.1303 14.6235 20.8497 14.925C20.6558 15.1334 20.5581 15.2372 20.4307 15.2395C20.3035 15.2415 20.201 15.1397 19.9971 14.9358L9.06354 4.0022C8.85952 3.79819 8.75754 3.69599 8.75983 3.5686C8.76222 3.44132 8.86617 3.34429 9.07428 3.15063C9.37597 2.8699 9.65844 2.6208 9.9278 2.40552C10.6613 1.81932 11.3654 1.42559 12.1905 1.30298Z" fill="#2A3EF4"/>
</svg>
