<svg width="24" height="24" viewBox="0 0 24 24" fill="none" xmlns="http://www.w3.org/2000/svg">
<path d="M12.1904 1.30273C12.7536 1.21903 13.3307 1.23569 13.8945 1.35059C14.9416 1.56409 15.8237 2.20458 16.8564 3.15137C17.3861 3.63725 17.2975 4.40461 16.8798 4.82227C16.3249 5.37753 16.3093 6.36394 16.9726 7.02734C17.6361 7.69085 18.6234 7.67535 19.1786 7.12012C19.5964 6.7026 20.3628 6.61467 20.8486 7.14453C21.7954 8.17727 22.4359 9.05916 22.6494 10.1064C22.7642 10.6701 22.7809 11.2464 22.6972 11.8096C22.5746 12.6347 22.1809 13.3388 21.5947 14.0723C21.0244 14.7857 20.2192 15.5904 19.206 16.6035L16.6035 19.2061C15.5903 20.2192 14.7857 21.0245 14.0722 21.5947C13.3387 22.181 12.6347 22.5746 11.8095 22.6973C11.2464 22.7809 10.6701 22.7642 10.1064 22.6494C9.05914 22.436 8.17713 21.7954 7.14447 20.8486C6.61445 20.3625 6.70238 19.5955 7.12006 19.1777C7.67529 18.6225 7.69079 17.6362 7.02728 16.9727C6.36377 16.3092 5.37742 16.3247 4.8222 16.8799C4.40438 17.2976 3.63739 17.3857 3.15131 16.8555C2.2047 15.8229 1.56401 14.9416 1.35052 13.8945C1.23563 13.3307 1.21897 12.7537 1.30267 12.1904C1.4253 11.3653 1.81998 10.6622 2.40619 9.92871C2.97644 9.21521 3.78068 8.40968 4.79388 7.39648L7.39642 4.79395C8.40962 3.78074 9.21515 2.9765 9.92865 2.40625C10.6621 1.82004 11.3652 1.42536 12.1904 1.30273ZM5.88666 8.42578C4.83424 9.4782 4.08894 10.2248 3.57709 10.8652C3.07538 11.4931 2.85428 11.9521 2.78607 12.4111C2.72859 12.7981 2.73956 13.1988 2.82025 13.5947C2.93563 14.1608 3.27132 14.7301 4.02533 15.585C5.22824 14.6413 6.98032 14.8047 8.08783 15.9121C9.19533 17.0196 9.35867 18.7717 8.41498 19.9746C9.2698 20.7285 9.8392 21.0643 10.4052 21.1797C10.8011 21.2604 11.2019 21.2713 11.5888 21.2139C12.0479 21.1456 12.5076 20.9248 13.1357 20.4229C13.7762 19.9109 14.5226 19.1658 15.5751 18.1133L18.1132 15.5752C18.1813 15.5071 18.2478 15.4396 18.3134 15.374L8.62592 5.68652L5.88666 8.42578ZM13.5947 2.82031C13.1987 2.73962 12.798 2.72866 12.4111 2.78613C11.9521 2.85434 11.493 3.07544 10.8652 3.57715C10.5166 3.85572 10.1368 4.20422 9.6933 4.63281L19.3661 14.3057C19.7947 13.8622 20.1442 13.4842 20.4228 13.1357C20.9248 12.5077 21.1456 12.048 21.2138 11.5889C21.2713 11.202 21.2603 10.8012 21.1796 10.4053C21.0642 9.83924 20.7285 9.26989 19.9745 8.41504C18.7716 9.35837 17.0194 9.19527 15.912 8.08789C14.8047 6.98051 14.6416 5.22829 15.5849 4.02539C14.73 3.27139 14.1607 2.93569 13.5947 2.82031Z" fill="#666666"/>
</svg>
