<svg width="16" height="16" viewBox="0 0 16 16" fill="none" xmlns="http://www.w3.org/2000/svg">
<path d="M14.2512 5.05536C14.4046 4.82626 14.7153 4.76439 14.9446 4.91766C15.1735 5.07101 15.2356 5.38086 15.0833 5.61005C15.0386 5.67736 14.591 6.33196 13.8147 7.10809L15.0208 8.31317C15.2159 8.50844 15.2158 8.82489 15.0208 9.0202C14.9234 9.11753 14.7952 9.16668 14.6672 9.16669C14.5392 9.16669 14.4101 9.1182 14.3127 9.0202L13.0784 7.78583C12.4321 8.32946 11.6443 8.86605 10.7356 9.2536L11.429 10.4089C11.571 10.6455 11.4937 10.9534 11.2571 11.0954C11.1765 11.1433 11.0875 11.1667 11.0002 11.1667C10.8304 11.1665 10.6655 11.0794 10.5715 10.9235L9.77075 9.59052C9.21501 9.74194 8.62403 9.83269 8.00024 9.8327C7.37574 9.8327 6.78407 9.74226 6.22778 9.59052L5.42896 10.9235C5.33496 11.0795 5.16927 11.1667 4.99927 11.1667C4.91195 11.1667 4.82308 11.1441 4.74243 11.0954C4.50587 10.9534 4.42956 10.6455 4.57153 10.4089L5.26392 9.25458C4.35505 8.86687 3.56643 8.33058 2.92017 7.7868L1.68677 9.0202C1.58953 9.11739 1.46208 9.1666 1.33423 9.16669H1.33325C1.20525 9.16669 1.07707 9.1182 0.979736 9.0202C0.784613 8.82487 0.784529 8.50845 0.979736 8.31317L2.18384 7.10809C1.40827 6.3325 0.961913 5.6783 0.917236 5.61102C0.763989 5.3811 0.826109 5.07104 1.05591 4.91766C1.2859 4.76433 1.59593 4.82634 1.74927 5.05634C1.7746 5.09367 4.32158 8.83368 8.00024 8.83368C11.6789 8.83362 14.2259 5.09336 14.2512 5.05536Z" fill="#999999"/>
</svg>
